<?xml version="1.0" standalone="no"?>
<!DOCTYPE svg PUBLIC "-//W3C//DTD SVG 20010904//EN"
 "http://www.w3.org/TR/2001/REC-SVG-20010904/DTD/svg10.dtd">
<svg version="1.0" xmlns="http://www.w3.org/2000/svg"
 width="450.000000pt" height="450.000000pt" viewBox="0 0 450.000000 450.000000"
 preserveAspectRatio="xMidYMid meet">
<metadata>
Created by potrace 1.11, written by Peter Selinger 2001-2013
</metadata>
<g transform="translate(0.000000,450.000000) scale(0.100000,-0.100000)"
fill="#000000" stroke="none">
<path d="M2089 4476 c-2 -2 -41 -7 -87 -10 -45 -4 -88 -9 -95 -11 -6 -2 -28
-6 -47 -9 -53 -8 -93 -16 -112 -22 -9 -3 -25 -7 -35 -9 -54 -11 -210 -61 -288
-92 -423 -167 -799 -472 -1049 -851 -72 -109 -163 -277 -196 -362 -12 -30 -27
-66 -33 -80 -6 -14 -11 -27 -12 -30 -1 -3 -4 -12 -7 -20 -24 -62 -69 -232 -93
-351 -3 -16 -9 -61 -25 -184 -8 -63 -5 -416 4 -475 3 -19 8 -53 11 -75 3 -22
7 -51 10 -65 3 -14 10 -45 15 -70 67 -335 252 -709 486 -985 76 -89 82 -89
176 2 49 48 78 84 78 98 0 11 -21 44 -46 73 -205 231 -370 569 -433 882 -31
158 -33 171 -36 370 -6 337 51 600 195 895 200 410 538 741 954 935 92 42 212
88 255 96 14 3 28 7 33 10 5 3 21 8 36 10 15 3 52 11 82 19 30 7 75 16 100 20
25 3 61 8 80 11 76 13 397 12 485 -1 346 -49 636 -163 905 -357 52 -38 115
-86 140 -108 24 -22 54 -40 65 -40 14 0 50 29 98 78 89 92 90 100 14 164 -201
169 -427 306 -637 387 -47 18 -94 37 -105 41 -73 29 -292 82 -400 96 -27 4
-59 9 -70 11 -25 6 -411 14 -416 9z"/>
<path d="M3887 3692 c-33 -22 -121 -112 -135 -137 -12 -24 -5 -39 38 -87 44
-48 131 -180 188 -286 107 -196 175 -401 216 -646 24 -140 25 -411 2 -556 -2
-14 -7 -45 -10 -70 -4 -25 -11 -58 -16 -75 -5 -16 -12 -41 -14 -55 -10 -47
-36 -135 -57 -190 -11 -30 -23 -64 -27 -75 -11 -39 -102 -216 -151 -295 -288
-463 -753 -787 -1285 -895 -225 -45 -485 -51 -696 -15 -30 5 -68 12 -85 14
-57 10 -243 66 -319 96 -170 67 -354 172 -493 281 -35 27 -71 49 -82 49 -23 0
-156 -125 -165 -156 -10 -34 44 -84 208 -194 114 -77 253 -153 371 -203 90
-38 248 -93 289 -101 15 -3 42 -9 59 -15 45 -14 268 -49 356 -56 163 -12 382
-4 521 21 14 2 41 7 60 10 69 10 267 66 360 100 579 215 1058 676 1293 1244
251 609 220 1297 -83 1877 -64 122 -129 226 -198 316 -85 112 -104 125 -145
99z"/>
<path d="M899 3092 l-22 -19 0 -823 0 -823 23 -19 c19 -15 41 -18 144 -18 90
0 127 4 142 14 18 14 19 32 21 546 1 293 3 534 5 536 2 2 34 -54 71 -124 37
-70 90 -170 118 -222 27 -52 73 -139 101 -192 67 -129 81 -141 166 -145 37 -1
82 2 99 8 35 11 42 22 153 234 29 55 80 152 113 215 91 173 127 236 128 225 0
-5 1 -247 2 -537 2 -514 2 -528 22 -543 18 -14 69 -15 435 -11 267 2 431 8
460 15 171 44 261 90 339 173 62 65 124 194 138 283 3 17 8 49 12 72 20 107
17 629 -4 663 -2 3 -7 22 -10 40 -10 57 -56 162 -92 212 -99 137 -256 219
-468 246 -27 4 -218 7 -423 7 l-374 0 -18 -23 c-11 -13 -54 -87 -96 -165 -42
-78 -91 -169 -109 -202 -18 -33 -85 -157 -149 -275 -142 -264 -130 -243 -140
-242 -5 0 -29 38 -53 84 -24 46 -59 110 -77 143 -19 33 -51 92 -71 130 -21 39
-49 90 -63 115 -13 25 -45 83 -70 130 -25 47 -62 116 -83 153 -22 38 -39 72
-39 76 0 4 -13 22 -29 41 l-29 35 -125 2 c-109 3 -128 1 -148 -15z m2016 -275
c192 -23 291 -127 311 -330 7 -70 6 -434 -2 -495 -15 -121 -61 -210 -132 -257
-67 -44 -148 -57 -364 -59 -109 -1 -199 0 -199 3 -3 10 -6 1136 -3 1141 3 7
327 4 389 -3z"/>
</g>
</svg>
