<svg xmlns="http://www.w3.org/2000/svg" width="150" height="149" viewBox="0 0 150 149">
    <g fill="#F4F4F5" fill-rule="evenodd">
        <path d="M107.649 80.412c-.11 4.687-1.18 8.036-3.207 10.052-2.03 2.017-5.319 3.022-9.867 3.022H84.13V55.241h10.034c4.603 0 7.975 1.05 10.113 3.148 2.138 2.097 3.261 5.38 3.372 9.846.11 3.16.165 5.177.165 6.048 0 .817-.056 2.86-.165 6.129m11.678-12.422c-.329-14.819-8.581-22.227-24.752-22.227H74.509c-.045 0-.078.02-.12.021-.238.014-.465.05-.678.12l-.032.013c-.637.217-1.175.674-1.597 1.398l-15.87 29.256L40.34 47.315c-.605-1.035-1.427-1.552-2.468-1.552h-6.661c-.604 0-1.083.19-1.44.57-.357.382-.534.874-.534 1.471v53.202c0 .544.192 1.008.576 1.39.383.382.85.57 1.398.57h7.073c.602 0 1.081-.188 1.439-.57.356-.382.534-.846.534-1.39v-35.14L51.69 87.44c.711 1.2 1.644 1.798 2.796 1.798h3.452c1.207 0 2.111-.599 2.714-1.798l11.431-21.575v35.141c0 .544.192 1.008.576 1.39.384.382.85.57 1.398.57h20.93c8.167 0 14.211-1.808 18.132-5.433 3.919-3.622 5.99-9.247 6.209-16.876.11-3.159.165-5.257.165-6.293 0-1.089-.056-3.213-.165-6.374"/>
        <path d="M124.264 18.566C111.074 7.023 93.834 0 74.972 0 33.632 0 0 33.637 0 74.984c0 18.866 7.022 36.11 18.563 49.302l-.03.032 1.051 1.053c.318.317.697.476 1.142.476.443 0 .822-.16 1.14-.476l4.088-4.089c.349-.35.516-.735.5-1.165a1.622 1.622 0 0 0-.5-1.117l-.918-.918C15.034 106.507 8.96 91.446 8.96 74.984c0-36.405 29.613-66.022 66.01-66.022 16.454 0 31.506 6.07 43.076 16.066l.93.93c.317.32.697.477 1.142.477.442 0 .822-.157 1.14-.476l4.087-4.087c.348-.352.517-.737.5-1.167a1.622 1.622 0 0 0-.5-1.117l-1.052-1.052-.03.03zM129.363 26.273l-4.06 4.058c-.345.349-.51.731-.496 1.158.016.424.181.794.496 1.11l1.047 1.044-.009.009c8.857 11.178 14.168 25.289 14.168 40.628 0 36.144-29.407 65.552-65.55 65.552-15.34 0-29.452-5.31-40.63-14.168l-.068.067-1.044-1.044a1.545 1.545 0 0 0-1.134-.474c-.44 0-.819.157-1.132.474l-4.061 4.057c-.345.347-.51.732-.495 1.157.014.425.182.796.495 1.11l1.046 1.043.06-.058c12.822 10.452 29.17 16.734 46.963 16.734 41.051 0 74.448-33.399 74.448-74.45 0-17.792-6.282-34.141-16.734-46.962l-1.045-1.045a1.538 1.538 0 0 0-1.131-.473 1.54 1.54 0 0 0-1.134.473"/>
    </g>
</svg>
